# xmcd
#
# Track frame offsets:
#	150
#	12307
#	21952
#	32384
#	50243
#	75214
#	93105
#	105796
#	119315
#	132607
#	152814
#	173272
#
# Disc length: 2550 seconds
#
# Revision: 1
# Processed by: cddbd v1.4PL0 Copyright (c) Steve Scherf et al.
# Submitted via: AudioConverter v4.01 Copyright (c) Dennis Rebentrost
#
DISCID=7f09f40c
DTITLE=RICK STEFFEN - LOVE and ESCAPE
DYEAR=1986
DGENRE=Country
TTITLE0=BEGGARS HOLIDAY
TTITLE1=ONE MORE CHANCE
TTITLE2=ISLAND IN THE SUN
TTITLE3=WHEN GOOD TIMES COME AROUND
TTITLE4=OFFSHORE
TTITLE5=GIVE TIL IT HURTS
TTITLE6=SOMEBODYS BABY
TTITLE7=I WISH YOU HAD ME HERE TONIGHT
TTITLE8=IT ONLY HURTS TIL THE NEXT TIME
TTITLE9=MISSIN YOU THIS MORNIN
TTITLE10=SO MUCH IN LOVE
TTITLE11=IF YOU CANT SAY SOMETHING NICE
EXTD=
EXTT0=
EXTT1=
EXTT2=
EXTT3=
EXTT4=
EXTT5=
EXTT6=
EXTT7=
EXTT8=
EXTT9=
EXTT10=
EXTT11=
PLAYORDER=
